<svg xmlns="http://www.w3.org/2000/svg" viewBox="0 0 106.03 173.3"><defs><style>.cls-1,.cls-3{fill:none;stroke:#7a7a7a;stroke-linecap:round;stroke-linejoin:round;stroke-width:0.5px;}.cls-2{fill:#444;}.cls-3{opacity:0;}</style></defs><title>nuit-emerald</title><g id="Lag_2" data-name="Lag 2"><g id="Lag_1-2" data-name="Lag 1"><polygon class="cls-1" points="34.12 42.79 70.01 42.79 75.24 47.84 75.24 110.03 70.53 115.08 34.82 115.08 29.42 110.03 29.42 47.67 34.12 42.79"/><polygon class="cls-1" points="32.77 39.48 72.26 39.48 79.07 45.49 78.76 112.45 72.49 118.39 32.51 118.39 26.29 112.88 26.29 45.31 32.77 39.48"/><polygon class="cls-1" points="29.74 34.43 74.83 34.43 83.77 42.48 83.77 115.54 75.24 123.45 30 123.45 21.41 115.49 21.41 42.16 29.74 34.43"/><polygon class="cls-1" points="27.59 29.38 77.25 29.38 88.47 40.6 88.47 117.56 77.41 128.5 27.23 128.5 16.53 118.12 16.53 40.07 27.59 29.38"/><line class="cls-1" x1="34.82" y1="115.08" x2="27.23" y2="128.5"/><line class="cls-1" x1="29.42" y1="110.03" x2="16.53" y2="118.12"/><line class="cls-1" x1="70.53" y1="115.08" x2="77.41" y2="128.5"/><line class="cls-1" x1="75.24" y1="110.03" x2="88.47" y2="117.56"/><line class="cls-1" x1="75.24" y1="47.84" x2="88.47" y2="40.6"/><line class="cls-1" x1="70.01" y1="42.79" x2="77.25" y2="29.38"/><line class="cls-1" x1="34.12" y1="42.79" x2="27.59" y2="29.38"/><line class="cls-1" x1="29.42" y1="47.67" x2="16.53" y2="40.07"/><rect class="cls-3" x="0.25" y="0.25" width="105.53" height="156.26"/></g></g></svg>