<svg xmlns="http://www.w3.org/2000/svg" viewBox="0 0 106.03 175.54"><defs><style>.cls-1,.cls-3{fill:none;stroke:#7a7a7a;stroke-linecap:round;stroke-linejoin:round;stroke-width:0.5px;}.cls-2{fill:#444;}.cls-3{opacity:0;}</style></defs><title>nuit-marquise</title><g id="Lag_2" data-name="Lag 2"><g id="Lag_1-2" data-name="Lag 1"><polyline class="cls-1" points="53.22 125.95 61.86 134.53 68.47 136.78"/><polyline class="cls-1" points="69.72 106.6 61.86 134.53 53.22 150.77"/><line class="cls-1" x1="78.82" y1="120.7" x2="61.86" y2="134.53"/><line class="cls-1" x1="53.22" y1="32.79" x2="70.24" y2="51.78"/><path class="cls-1" d="M53.22,150.77c25.13-17.33,32.64-45,34.89-60.51a83.21,83.21,0,0,0,1-11.49c.94-49.7-35.84-71-35.84-71"/><polyline class="cls-1" points="79.26 119.81 70.69 105.46 53.22 125.95"/><polyline class="cls-1" points="84.03 47.18 81.31 61.38 70.69 105.46 81.22 95.84 88.11 90.26"/><path class="cls-1" d="M53.22,7.72,61.86,24S71,51.41,77.36,80.11l3.86,15.73,7.83-16.6"/><polyline class="cls-1" points="79.71 118.86 81.22 95.84 83.61 109.11"/><line class="cls-1" x1="81.22" y1="95.84" x2="86.41" y2="99.27"/><polyline class="cls-1" points="68.31 20.79 61.62 23.49 53.22 32.79"/><polyline class="cls-1" points="61.86 23.95 80.06 38.01 70.24 51.78 81.08 62.34 89.06 78.77"/><line class="cls-1" x1="80.06" y1="38.01" x2="80.61" y2="61.89"/><path class="cls-1" d="M88.71,68.56s-7.34-6.26-7.63-6.22L87,57.47"/><polyline class="cls-1" points="53.02 125.78 44.38 134.36 37.77 136.61"/><polyline class="cls-1" points="36.52 106.43 44.38 134.36 53.02 150.6"/><line class="cls-1" x1="27.42" y1="120.53" x2="44.38" y2="134.36"/><line class="cls-1" x1="53.01" y1="32.62" x2="36" y2="51.61"/><path class="cls-1" d="M53,150.6c-25.12-17.33-32.64-45-34.88-60.51a81.29,81.29,0,0,1-.95-11.49C16.24,28.9,53,7.55,53,7.55"/><polyline class="cls-1" points="26.98 119.64 35.55 105.29 53.02 125.78"/><polyline class="cls-1" points="22.21 47.01 24.93 61.22 35.55 105.29 25.02 95.67 18.13 90.09"/><path class="cls-1" d="M53,7.55,44.38,23.78s-9.16,27.46-15.5,56.16L25,95.67,17.18,79.08"/><polyline class="cls-1" points="26.53 118.69 25.02 95.67 22.63 108.94"/><line class="cls-1" x1="25.02" y1="95.67" x2="19.83" y2="99.1"/><polyline class="cls-1" points="37.93 20.63 44.62 23.32 53.02 32.62"/><polyline class="cls-1" points="44.38 23.78 26.18 37.84 36 51.61 25.16 62.17 17.18 78.6"/><line class="cls-1" x1="26.18" y1="37.84" x2="25.63" y2="61.72"/><path class="cls-1" d="M17.53,68.39s7.34-6.26,7.63-6.21L19.23,57.3"/><rect class="cls-3" x="0.25" y="0.25" width="105.53" height="156.26"/></g></g></svg>