<svg xmlns="http://www.w3.org/2000/svg" viewBox="0 0 106.03 173.3"><defs><style>.cls-1,.cls-3{fill:none;stroke:#7a7a7a;stroke-linecap:round;stroke-linejoin:round;stroke-width:0.5px;}.cls-2{fill:#444;}.cls-3{opacity:0;}</style></defs><title>nuit-oval</title><g id="Lag_2" data-name="Lag 2"><g id="Lag_1-2" data-name="Lag 1"><path class="cls-1" d="M83.55,39.34c.06.08,1.23,21.93,1.23,21.93l7.55-4.07"/><path class="cls-1" d="M83.7,118.39s.26-17.54,1.15-22.32"/><path class="cls-1" d="M22.48,39.34c-.06.08-1.23,21.93-1.23,21.93L13.7,57.2"/><path class="cls-1" d="M22.33,118.39s-.26-17.54-1.15-22.32"/><ellipse class="cls-1" cx="53.01" cy="78.97" rx="42.54" ry="56.93"/><line class="cls-1" x1="78.63" y1="79.13" x2="84.78" y2="61.27"/><path class="cls-1" d="M53,44.74s10.85,7.08,31.77,16.53L95.56,79"/><polyline class="cls-1" points="53.02 44.74 65.91 36.37 53.02 22.04"/><polyline class="cls-1" points="69.44 26.44 65.91 36.37 82.72 38.22"/><path class="cls-1" d="M53,135.91s10.47-11.78,12.9-14"/><polyline class="cls-1" points="95.56 78.97 84.85 96.07 53.02 113.14"/><path class="cls-1" d="M53,113.14l12.9,8.75s8.32-30,12.72-42.76l6.22,16.94,7.46,4.74"/><path class="cls-1" d="M82.72,119.72a131.08,131.08,0,0,0-16.81,2.17l3.45,9.66"/><path class="cls-1" d="M65.91,36.37S73,63.8,78.63,79.13"/><line class="cls-1" x1="27.4" y1="79.13" x2="21.25" y2="61.27"/><path class="cls-1" d="M53,44.74S42.17,51.82,21.25,61.27L10.47,79"/><polyline class="cls-1" points="53.02 44.74 40.12 36.37 53.02 22.04"/><polyline class="cls-1" points="36.59 26.44 40.12 36.37 23.31 38.22"/><path class="cls-1" d="M53,135.91s-10.46-11.78-12.89-14"/><polyline class="cls-1" points="10.47 78.97 21.18 96.07 53.02 113.14"/><path class="cls-1" d="M53,113.14l-12.89,8.75s-8.32-30-12.72-42.76L21.18,96.07l-7.46,4.74"/><path class="cls-1" d="M23.31,119.72a131.08,131.08,0,0,1,16.81,2.17l-3.45,9.66"/><path class="cls-1" d="M40.12,36.37S33,63.8,27.4,79.13"/><rect class="cls-3" x="0.25" y="0.25" width="105.53" height="156.26"/></g></g></svg>