<svg xmlns="http://www.w3.org/2000/svg" viewBox="0 0 106.03 173.3"><defs><style>.cls-1,.cls-3{fill:none;stroke:#7a7a7a;stroke-linecap:round;stroke-linejoin:round;stroke-width:0.5px;}.cls-2{fill:#444;}.cls-3{opacity:0;}</style></defs><title>nuit-pear</title><g id="Lag_2" data-name="Lag 2"><g id="Lag_1-2" data-name="Lag 1"><polyline class="cls-1" points="65.8 45.07 53.46 18.28 40.19 45.24"/><path class="cls-1" d="M52.74,52.7c5.69-2.22,20.79-12.82,20.79-12.82"/><path class="cls-1" d="M32.5,39.88S47.2,50.48,52.74,52.7l-12.55,14V45.24S21.87,57.91,22,57.69l3,22.42L40.19,66.69"/><path class="cls-1" d="M92.55,95.36C87,83.89,65.8,66.69,65.8,66.69L73,95.84a103.42,103.42,0,0,1,8.38-15.19l2.65-23L65.8,45.07V66.69l-13.06-14"/><polyline class="cls-1" points="15.15 76.77 24.94 80.11 33.47 95.84 40.19 66.69"/><path class="cls-1" d="M81.41,80.65s4.89-2.19,9.36-3.76"/><path class="cls-1" d="M15.94,113s8.73-4.63,22.93-2.06l-5.4-15.12L24.94,110l-12-14.19,12-15.73"/><path class="cls-1" d="M24.88,110.55l-.79,17s3.85-1.41,16.1-.37L38.87,111"/><path class="cls-1" d="M90.31,75c9.4,37-11.55,67-36.85,67s-47.4-26.7-38.62-63.86c9.11-38.6,37.9-59.8,38.62-59.8S81.6,40.63,90.31,75Z"/><path class="cls-1" d="M92.53,95.84C90,99.19,81.41,110.6,81.41,110.6L73,95.84A101.33,101.33,0,0,0,67.53,111s-9.28,3.75-14.39,7.12c0,0-6.41-3.74-14-7.12"/><path class="cls-1" d="M89.38,112.63s-7-3.56-21.85-1.67l-1.69,16.26,16.23-.67-.66-16"/><polyline class="cls-1" points="37.36 138.16 40.19 127.22 53.14 118.08 65.84 127.22 68.64 138.16"/><polyline class="cls-1" points="65.84 127.22 53.46 141.94 40.19 127.22"/><rect class="cls-3" x="0.25" y="0.25" width="105.53" height="156.26"/></g></g></svg>