<svg xmlns="http://www.w3.org/2000/svg" viewBox="0 0 106.03 173.28"><defs><style>.cls-1,.cls-3{fill:none;stroke:#7a7a7a;stroke-linecap:round;stroke-linejoin:round;stroke-width:0.5px;}.cls-2{fill:#444;}.cls-3{opacity:0;}</style></defs><title>nuit-princess</title><g id="Lag_2" data-name="Lag 2"><g id="Lag_1-2" data-name="Lag 1"><polyline class="cls-1" points="53.02 39.61 92.65 39.61 92.65 79.25"/><line class="cls-1" x1="53.02" y1="47.46" x2="79.62" y2="47.46"/><polyline class="cls-1" points="84.48 79.25 84.48 51.77 92.65 39.61 79.62 47.46 53.02 55.58 74.29 57.8 76.3 79.25 84.48 51.77 74.29 57.8 79.62 47.46"/><polyline class="cls-1" points="53.02 39.61 13.38 39.61 13.38 79.25"/><line class="cls-1" x1="53.02" y1="47.46" x2="26.41" y2="47.46"/><polyline class="cls-1" points="21.55 79.25 21.55 51.77 13.38 39.61 26.41 47.46 53.02 55.58 31.74 57.8 29.73 79.25 21.55 51.77 31.74 57.8 26.41 47.46"/><polyline class="cls-1" points="53.02 118.88 92.65 118.88 92.65 79.25"/><line class="cls-1" x1="53.02" y1="111.03" x2="79.62" y2="111.03"/><polyline class="cls-1" points="84.48 79.25 84.48 106.72 92.65 118.88 79.62 111.03 53.02 102.91 74.29 100.69 76.3 79.25 84.48 106.72 74.29 100.69 79.62 111.03"/><polyline class="cls-1" points="53.02 118.88 13.38 118.88 13.38 79.25"/><line class="cls-1" x1="53.02" y1="111.03" x2="26.41" y2="111.03"/><polyline class="cls-1" points="21.55 79.25 21.55 106.72 13.38 118.88 26.41 111.03 53.02 102.91 31.74 100.69 29.73 79.25 21.55 106.72 31.74 100.69 26.41 111.03"/><rect class="cls-3" x="0.25" y="0.25" width="105.53" height="156.26"/></g></g></svg>