<svg xmlns="http://www.w3.org/2000/svg" viewBox="0 0 106.03 170.45"><defs><style>.cls-1,.cls-3{fill:none;stroke:#7a7a7a;stroke-linecap:round;stroke-linejoin:round;stroke-width:0.5px;}.cls-2{fill:#444;}.cls-3{opacity:0;}</style></defs><title>nuit-round-brilliant</title><g id="Lag_2" data-name="Lag 2"><g id="Lag_1-2" data-name="Lag 1"><line class="cls-1" x1="87.89" y1="78.77" x2="95.9" y2="61.27"/><path class="cls-1" d="M75.56,79.13s.58-15,2-24.86"/><line class="cls-1" x1="87.89" y1="78.97" x2="95.71" y2="97.12"/><path class="cls-1" d="M75.56,79.13s.4,15,1.8,25"/><circle class="cls-1" cx="53.2" cy="78.63" r="46.98"/><path class="cls-1" d="M86.59,46.2l-8.25,7.52a3.46,3.46,0,0,1-1.85.87c-3.12.44-12.32,1.68-15.8,1.68H53.2"/><path class="cls-1" d="M87.89,79C63.37,62.05,53.2,44.27,53.2,44.27S71.48,36,71.28,35.88s6.26,18.39,6.26,18.39l19.21,7.32"/><circle class="cls-1" cx="53.2" cy="78.63" r="46.98"/><path class="cls-1" d="M20.15,45.25l7.52,8.24a3.5,3.5,0,0,1,.87,1.85c.44,3.13,1.68,12.33,1.68,15.8v7.49"/><path class="cls-1" d="M53.2,44.27c-16.93,24.52-35,34.36-35,34.36S9.91,60.35,9.82,60.55s18.4-6.26,18.4-6.26l7.32-19.2"/><line class="cls-1" x1="53.2" y1="44.27" x2="35.22" y2="35.94"/><path class="cls-1" d="M53.2,56.27s-15-.58-25-2"/><path class="cls-1" d="M86.24,112l-8.08-7.37a3.5,3.5,0,0,0-1.85-.87c-3.13-.43-12.33-1.68-15.8-1.68H53"/><path class="cls-1" d="M87.89,79C63.37,95.9,53,114.11,53,114.11s18.14,8,17.94,8,6.41-18,6.41-18l19.2-7.33"/><path class="cls-1" d="M20.59,112.46l6.9-7.57a3.43,3.43,0,0,0,.87-1.84c.43-3.13,1.53-12.33,1.68-15.8.18-4.25.18-8.62.18-8.62"/><path class="cls-1" d="M53,114.11C36.09,89.6,18.22,78.63,18.22,78.63s-7.87,19.31-7.95,19.11S28,104.09,28,104.09l6.79,17.8"/><line class="cls-1" x1="53.01" y1="114.11" x2="34.82" y2="121.89"/><path class="cls-1" d="M53,102.11s-15,.59-25,2"/><rect class="cls-3" x="0.25" y="0.25" width="105.53" height="156.26"/></g></g></svg>